<?xml version="1.0" ?><svg id="katman_1" style="enable-background:new 0 0 512 512;" version="1.1" viewBox="0 0 512 512" xml:space="preserve" xmlns="http://www.w3.org/2000/svg" xmlns:xlink="http://www.w3.org/1999/xlink"><style type="text/css">
	.st0{fill:#3997D3;}
	.st1{fill:#2981BA;}
	.st2{fill:#FFFFFF;}
</style><g><g><circle class="st0" cx="256" cy="256" r="250"/></g><path class="st1" d="M506,258.3c-0.2-0.3-0.4-0.5-0.7-0.8c-39.9-39.8-79.7-79.6-119.5-119.5c-2.3-2.3-4.8-3.3-8.1-3.3   c-18.9,0.1-37.8,0-56.6,0.1c-1.5,0-2.5-0.4-3.6-1.5c-7.2-7.3-14.5-14.5-21.7-21.8c-3.4-3.5-7.4-5.1-12.2-5.1c-9,0.1-18.1,0-27.1,0   c-9,0-17.9,0-26.9,0c-3.7,0-7.1,1-10,3.4c-3.2,2.8-4.9,6.3-4.9,10.5c0,4.6,0,9.3,0,14.3c-1.3,0-2.2,0-3.1,0c-25.1,0-50.2,0-75.4,0   c-0.8,0-1.6,0-2.4,0c-3.4,0.3-6,2.5-6.7,5.6c-0.6,2.7,0.3,5,2.2,7c5.2,5.2,10.3,10.5,15.7,15.6c2,1.9,2.9,3.9,2.9,6.7   c0.6,17.1,1.3,34.2,1.9,51.3c0.4,11,0.8,22.1,1.2,33.1c0.6,15.3,1.2,30.5,1.8,45.8c0.4,9.7,0.7,19.5,1.1,29.3   c0.6,16,1.2,32,1.9,47.9c0.1,2.8,0.2,5.6,0.7,8.4c1,6.1,4.3,10.9,8.6,15.2c21.4,21.3,42.8,42.7,64.2,64.1   c13.4,13.4,26.8,26.8,40.2,40.2c0.3,0.3,0.6,0.6,0.9,0.8C401,498.1,504.8,390.5,506,258.3z"/><g><path class="st2" d="M378.7,134.3h-80.6V120c0-7.7-6.3-14-14-14h-56.1c-7.7,0-14,6.3-14,14v14.2h-80.6c-3.9,0-7.1,3.2-7.1,7.1    c0,3.9,3.2,7.1,7.1,7.1h13.1l8.9,232.3c0.5,14.2,12.1,25.4,26.3,25.4h148.7c14.2,0,25.8-11.1,26.3-25.4l8.9-232.3h13.1    c3.9,0,7.1-3.2,7.1-7.1C385.8,137.4,382.6,134.3,378.7,134.3z M228,120.1H284v14.1H228V120.1z M342.6,380.1    c-0.3,6.6-5.6,11.8-12.2,11.8H181.6c-6.6,0-12-5.2-12.2-11.8l-8.9-231.7h191L342.6,380.1z"/><path class="st2" d="M206,205.5c0,0-0.1,0-0.1,0c-3.9,0.1-7,3.3-6.9,7.2l2.2,115.2c0.1,3.9,3.2,6.9,7.1,6.9c0,0,0.1,0,0.1,0    c3.9-0.1,7-3.3,6.9-7.2L213,212.4C212.9,208.5,209.8,205.5,206,205.5z"/><path class="st2" d="M256,205.5c-3.9,0-7.1,3.2-7.1,7.1v115.2c0,3.9,3.2,7.1,7.1,7.1c3.9,0,7.1-3.2,7.1-7.1V212.5    C263.1,208.6,259.9,205.5,256,205.5z"/><path class="st2" d="M303.7,334.8c0,0,0.1,0,0.1,0c3.8,0,7-3.1,7.1-6.9l2.2-115.2c0.1-3.9-3-7.1-6.9-7.2c-3.9-0.1-7.1,3-7.2,6.9    l-2.2,115.2C296.7,331.5,299.8,334.7,303.7,334.8z"/></g></g></svg>